HIERARCHY
ROOT Hips
{
	OFFSET 0.000000 87.230942 0.000000
	CHANNELS 6 Xposition Yposition Zposition Xrotation Yrotation Zrotation
	JOINT Pelvis
	{
		OFFSET 0.000000 0.000000 0.000000
		CHANNELS 3 Xrotation Yrotation Zrotation
		JOINT LeftUpLeg
		{
			OFFSET 12.017000 -9.376404 -2.439400
			CHANNELS 3 Xrotation Yrotation Zrotation
			JOINT LeftLeg
			{
				OFFSET -0.007312 -32.846973 2.110600
				CHANNELS 3 Xrotation Yrotation Zrotation
				JOINT LeftFoot
				{
					OFFSET 0.007312 -32.065170 -0.570400
					CHANNELS 3 Xrotation Yrotation Zrotation
					JOINT LeftToeBase
					{
						OFFSET 0.728300 -11.045900 13.180700
						CHANNELS 3 Xrotation Yrotation Zrotation
						End Site
						{
							OFFSET 0.000000 17.212589 0.000000
						}
					}
				}
				JOINT LeftPantLeg
				{
					OFFSET 0.002788 -16.709013 -3.143600
					CHANNELS 3 Xrotation Yrotation Zrotation
					End Site
					{
						OFFSET -0.605125 24.528742 0.000000
					}
				}
			}
			JOINT Left_Butt
			{
				OFFSET -6.630234 1.326584 -3.183700
				CHANNELS 3 Xrotation Yrotation Zrotation
				End Site
				{
					OFFSET -0.498041 20.188049 0.000000
				}
			}
		}
		JOINT RightUpLeg
		{
			OFFSET -11.717000 -9.376404 -2.439400
			CHANNELS 3 Xrotation Yrotation Zrotation
			JOINT RightLeg
			{
				OFFSET -0.003241 -32.846912 2.110600
				CHANNELS 3 Xrotation Yrotation Zrotation
				JOINT RightFoot
				{
					OFFSET 0.003241 -32.065136 -0.570500
					CHANNELS 3 Xrotation Yrotation Zrotation
					JOINT RightToeBase
					{
						OFFSET -0.728300 -11.045901 13.180700
						CHANNELS 3 Xrotation Yrotation Zrotation
						End Site
						{
							OFFSET 0.000000 17.212593 0.000000
						}
					}
				}
				JOINT RightPantLeg
				{
					OFFSET 0.008142 -16.708982 -3.143700
					CHANNELS 3 Xrotation Yrotation Zrotation
					End Site
					{
						OFFSET 0.605088 24.528715 0.000000
					}
				}
			}
			JOINT Right_Butt
			{
				OFFSET 6.630732 1.326584 -3.183700
				CHANNELS 3 Xrotation Yrotation Zrotation
				End Site
				{
					OFFSET 0.498015 20.188240 0.000000
				}
			}
		}
	}
	JOINT Spine
	{
		OFFSET -0.062400 7.848404 3.918300
		CHANNELS 3 Xrotation Yrotation Zrotation
		JOINT Spine1
		{
			OFFSET -0.072800 11.422302 0.713400
			CHANNELS 3 Xrotation Yrotation Zrotation
			JOINT Spine2
			{
				OFFSET -0.083200 13.054001 -1.931600
				CHANNELS 3 Xrotation Yrotation Zrotation
				JOINT Neck
				{
					OFFSET -0.092200 14.121796 -5.138800
					CHANNELS 3 Xrotation Yrotation Zrotation
					JOINT Head
					{
						OFFSET 0.000200 10.447403 -0.842000
						CHANNELS 3 Xrotation Yrotation Zrotation
						JOINT Visor
						{
							OFFSET 0.457100 25.671204 16.550400
							CHANNELS 3 Xrotation Yrotation Zrotation
							End Site
							{
								OFFSET 0.000000 26.061493 0.000000
							}
						}
						JOINT HairMidA
						{
							OFFSET 0.459400 31.585403 8.437400
							CHANNELS 3 Xrotation Yrotation Zrotation
							End Site
							{
								OFFSET 0.000000 26.061493 0.000000
							}
						}
						JOINT HairMidB
						{
							OFFSET 0.464000 33.309204 -8.389700
							CHANNELS 3 Xrotation Yrotation Zrotation
							End Site
							{
								OFFSET 0.000000 26.061493 0.000000
							}
						}
						JOINT HairMidC
						{
							OFFSET 0.466600 27.991196 -17.375099
							CHANNELS 3 Xrotation Yrotation Zrotation
							End Site
							{
								OFFSET 0.000000 26.061493 0.000000
							}
						}
						JOINT HairMidD
						{
							OFFSET 0.467700 17.888092 -21.169500
							CHANNELS 3 Xrotation Yrotation Zrotation
							End Site
							{
								OFFSET 0.000000 26.061493 0.000000
							}
						}
						JOINT HairMidE
						{
							OFFSET 5.325700 3.514603 -14.369699
							CHANNELS 3 Xrotation Yrotation Zrotation
							End Site
							{
								OFFSET 0.000000 26.061493 0.000000
							}
						}
						JOINT HairMidF
						{
							OFFSET -4.394100 3.514603 -14.372400
							CHANNELS 3 Xrotation Yrotation Zrotation
							End Site
							{
								OFFSET 0.000000 26.061493 0.000000
							}
						}
						JOINT HairLeftA
						{
							OFFSET 15.319900 25.746506 2.623300
							CHANNELS 3 Xrotation Yrotation Zrotation
							End Site
							{
								OFFSET 0.000000 26.061493 0.000000
							}
						}
						JOINT HairLeftB
						{
							OFFSET 12.619500 29.289398 -8.731499
							CHANNELS 3 Xrotation Yrotation Zrotation
							End Site
							{
								OFFSET 0.000000 26.061493 0.000000
							}
						}
						JOINT HairLeftC
						{
							OFFSET 15.714800 15.959900 2.909800
							CHANNELS 3 Xrotation Yrotation Zrotation
							End Site
							{
								OFFSET 0.000000 26.061493 0.000000
							}
						}
						JOINT HairLeftD
						{
							OFFSET 16.101700 18.437408 -7.553200
							CHANNELS 3 Xrotation Yrotation Zrotation
							End Site
							{
								OFFSET 0.000000 26.061493 0.000000
							}
						}
						JOINT HairLeftE
						{
							OFFSET 9.731900 17.915009 -18.316799
							CHANNELS 3 Xrotation Yrotation Zrotation
							End Site
							{
								OFFSET 0.000000 26.061493 0.000000
							}
						}
						JOINT HairLeftF
						{
							OFFSET 11.204300 4.953598 -9.668100
							CHANNELS 3 Xrotation Yrotation Zrotation
							End Site
							{
								OFFSET 0.000000 26.061493 0.000000
							}
						}
						JOINT HairRightA
						{
							OFFSET -14.397900 25.746307 2.615100
							CHANNELS 3 Xrotation Yrotation Zrotation
							End Site
							{
								OFFSET 0.000000 26.061493 0.000000
							}
						}
						JOINT HairRightB
						{
							OFFSET -11.691200 29.289200 -8.738199
							CHANNELS 3 Xrotation Yrotation Zrotation
							End Site
							{
								OFFSET 0.000000 26.061493 0.000000
							}
						}
						JOINT HairRightC
						{
							OFFSET -14.792900 15.959702 2.901400
							CHANNELS 3 Xrotation Yrotation Zrotation
							End Site
							{
								OFFSET 0.000000 26.061493 0.000000
							}
						}
						JOINT HairRightD
						{
							OFFSET -15.174000 18.437195 -7.561900
							CHANNELS 3 Xrotation Yrotation Zrotation
							End Site
							{
								OFFSET 0.000000 26.061493 0.000000
							}
						}
						JOINT HairRightE
						{
							OFFSET -8.798200 17.914902 -18.322001
							CHANNELS 3 Xrotation Yrotation Zrotation
							End Site
							{
								OFFSET 0.000000 26.061493 0.000000
							}
						}
						JOINT HairRightF
						{
							OFFSET -10.275200 4.953506 -9.674099
							CHANNELS 3 Xrotation Yrotation Zrotation
							End Site
							{
								OFFSET 0.000000 26.061493 0.000000
							}
						}
					}
				}
				JOINT LeftShoulder
				{
					OFFSET 5.133500 7.341202 -1.867600
					CHANNELS 3 Xrotation Yrotation Zrotation
					JOINT LeftArm
					{
						OFFSET 8.072663 0.936867 -2.176600
						CHANNELS 3 Xrotation Yrotation Zrotation
						JOINT LeftForeArm
						{
							OFFSET 31.271999 0.000000 0.000000
							CHANNELS 3 Xrotation Yrotation Zrotation
							JOINT LeftHand
							{
								OFFSET 31.771030 0.000000 0.000000
								CHANNELS 3 Xrotation Yrotation Zrotation
								JOINT LeftHandThumb1
								{
									OFFSET 2.886520 -2.557846 4.416640
									CHANNELS 3 Xrotation Yrotation Zrotation
									JOINT LeftHandThumb2
									{
										OFFSET 2.371025 -1.368912 1.368911
										CHANNELS 3 Xrotation Yrotation Zrotation
										JOINT LeftHandThumb3
										{
											OFFSET 2.243378 -1.295212 1.295213
											CHANNELS 3 Xrotation Yrotation Zrotation
											End Site
											{
												OFFSET -0.332611 2.876945 0.020015
											}
										}
									}
								}
								JOINT LeftHandIndex1
								{
									OFFSET 8.568985 -0.641945 3.119977
									CHANNELS 3 Xrotation Yrotation Zrotation
									JOINT LeftHandIndex2
									{
										OFFSET 3.348503 0.000000 0.000000
										CHANNELS 3 Xrotation Yrotation Zrotation
										JOINT LeftHandIndex3
										{
											OFFSET 3.314552 0.000000 0.000000
											CHANNELS 3 Xrotation Yrotation Zrotation
											End Site
											{
												OFFSET -1.032898 3.075485 0.678796
											}
										}
									}
								}
								JOINT LeftHandMiddle1
								{
									OFFSET 8.124603 0.000000 0.000000
									CHANNELS 3 Xrotation Yrotation Zrotation
									JOINT LeftHandMiddle2
									{
										OFFSET 4.166275 0.000000 0.000000
										CHANNELS 3 Xrotation Yrotation Zrotation
										JOINT LeftHandMiddle3
										{
											OFFSET 3.018135 0.000000 0.000000
											CHANNELS 3 Xrotation Yrotation Zrotation
											End Site
											{
												OFFSET -1.032700 2.767982 0.617226
											}
										}
									}
								}
								JOINT LeftHandRing1
								{
									OFFSET 8.571686 -0.031357 -2.884048
									CHANNELS 3 Xrotation Yrotation Zrotation
									JOINT LeftHandRing2
									{
										OFFSET 3.671181 0.000000 0.000000
										CHANNELS 3 Xrotation Yrotation Zrotation
										JOINT LeftHandRing3
										{
											OFFSET 2.728851 0.000000 0.000000
											CHANNELS 3 Xrotation Yrotation Zrotation
											End Site
											{
												OFFSET -0.815796 2.539223 0.577389
											}
										}
									}
								}
								JOINT LeftHandPinky1
								{
									OFFSET 7.854515 -0.675232 -5.213020
									CHANNELS 3 Xrotation Yrotation Zrotation
									JOINT LeftHandPinky2
									{
										OFFSET 3.068596 0.000000 0.000000
										CHANNELS 3 Xrotation Yrotation Zrotation
										JOINT LeftHandPinky3
										{
											OFFSET 2.396042 0.000000 0.000000
											CHANNELS 3 Xrotation Yrotation Zrotation
											End Site
											{
												OFFSET -0.524597 2.267998 0.567429
											}
										}
									}
								}
							}
							JOINT LeftSleeve
							{
								OFFSET 19.684509 -0.200119 0.476146
								CHANNELS 3 Xrotation Yrotation Zrotation
								End Site
								{
									OFFSET -0.031017 25.731133 -0.002868
								}
							}
						}
					}
				}
				JOINT RightShoulder
				{
					OFFSET -4.395900 7.341202 -1.870200
					CHANNELS 3 Xrotation Yrotation Zrotation
					JOINT RightArm
					{
						OFFSET -8.071453 0.936867 -2.181100
						CHANNELS 3 Xrotation Yrotation Zrotation
						JOINT RightForeArm
						{
							OFFSET -31.272011 0.000000 0.000000
							CHANNELS 3 Xrotation Yrotation Zrotation
							JOINT RightHand
							{
								OFFSET -31.771019 0.000000 0.000000
								CHANNELS 3 Xrotation Yrotation Zrotation
								JOINT RightHandThumb1
								{
									OFFSET -2.886520 -2.557808 4.416626
									CHANNELS 3 Xrotation Yrotation Zrotation
									JOINT RightHandThumb2
									{
										OFFSET -2.371056 -1.368927 1.368928
										CHANNELS 3 Xrotation Yrotation Zrotation
										JOINT RightHandThumb3
										{
											OFFSET -2.243362 -1.295204 1.295206
											CHANNELS 3 Xrotation Yrotation Zrotation
											End Site
											{
												OFFSET 0.332642 2.876938 0.020047
											}
										}
									}
								}
								JOINT RightHandIndex1
								{
									OFFSET -8.568993 -0.641953 3.120017
									CHANNELS 3 Xrotation Yrotation Zrotation
									JOINT RightHandIndex2
									{
										OFFSET -3.348518 0.000000 0.000000
										CHANNELS 3 Xrotation Yrotation Zrotation
										JOINT RightHandIndex3
										{
											OFFSET -3.314552 0.000000 0.000000
											CHANNELS 3 Xrotation Yrotation Zrotation
											End Site
											{
												OFFSET 1.032898 3.075478 0.678804
											}
										}
									}
								}
								JOINT RightHandMiddle1
								{
									OFFSET -8.124588 0.000000 0.000000
									CHANNELS 3 Xrotation Yrotation Zrotation
									JOINT RightHandMiddle2
									{
										OFFSET -4.166275 0.000000 0.000000
										CHANNELS 3 Xrotation Yrotation Zrotation
										JOINT RightHandMiddle3
										{
											OFFSET -3.018097 0.000000 0.000000
											CHANNELS 3 Xrotation Yrotation Zrotation
											End Site
											{
												OFFSET 1.032700 2.767937 0.617197
											}
										}
									}
								}
								JOINT RightHandRing1
								{
									OFFSET -8.571747 -0.031349 -2.884061
									CHANNELS 3 Xrotation Yrotation Zrotation
									JOINT RightHandRing2
									{
										OFFSET -3.671204 0.000000 0.000000
										CHANNELS 3 Xrotation Yrotation Zrotation
										JOINT RightHandRing3
										{
											OFFSET -2.728874 0.000000 0.000000
											CHANNELS 3 Xrotation Yrotation Zrotation
											End Site
											{
												OFFSET 0.815804 2.539261 0.577413
											}
										}
									}
								}
								JOINT RightHandPinky1
								{
									OFFSET -7.854561 -0.675247 -5.212970
									CHANNELS 3 Xrotation Yrotation Zrotation
									JOINT RightHandPinky2
									{
										OFFSET -3.068550 0.000000 0.000000
										CHANNELS 3 Xrotation Yrotation Zrotation
										JOINT RightHandPinky3
										{
											OFFSET -2.395981 0.000000 0.000000
											CHANNELS 3 Xrotation Yrotation Zrotation
											End Site
											{
												OFFSET 0.524605 2.267952 0.567413
											}
										}
									}
								}
							}
							JOINT RightSleeve
							{
								OFFSET -19.684753 -0.200165 0.476065
								CHANNELS 3 Xrotation Yrotation Zrotation
								End Site
								{
									OFFSET 0.031342 25.731255 -0.002917
								}
							}
						}
					}
				}
				JOINT Hood
				{
					OFFSET 0.369700 14.447800 -5.317800
					CHANNELS 3 Xrotation Yrotation Zrotation
					JOINT Hood1
					{
						OFFSET 0.001700 -5.553802 -5.895100
						CHANNELS 3 Xrotation Yrotation Zrotation
						JOINT Hood2
						{
							OFFSET -0.000200 -8.380501 0.763600
							CHANNELS 3 Xrotation Yrotation Zrotation
							End Site
							{
								OFFSET 0.000000 8.415215 0.000000
							}
						}
					}
				}
				JOINT Left_Breast
				{
					OFFSET 5.682500 3.120102 3.188800
					CHANNELS 3 Xrotation Yrotation Zrotation
					End Site
					{
						OFFSET 0.000000 10.528564 0.000000
					}
				}
				JOINT Right_Breast
				{
					OFFSET -4.947600 3.120102 3.185900
					CHANNELS 3 Xrotation Yrotation Zrotation
					End Site
					{
						OFFSET 0.000000 10.528564 0.000000
					}
				}
				JOINT Whistle
				{
					OFFSET 0.368200 11.471298 0.095400
					CHANNELS 3 Xrotation Yrotation Zrotation
					JOINT Whistle1
					{
						OFFSET -0.002000 -6.349899 7.479800
						CHANNELS 3 Xrotation Yrotation Zrotation
						JOINT Whistle2
						{
							OFFSET -0.001300 -8.217598 4.717600
							CHANNELS 3 Xrotation Yrotation Zrotation
							End Site
							{
								OFFSET 0.000000 9.475479 0.000000
							}
						}
					}
				}
			}
		}
		JOINT Belly
		{
			OFFSET 0.212400 1.593002 3.163700
			CHANNELS 3 Xrotation Yrotation Zrotation
			End Site
			{
				OFFSET 0.000000 7.496635 0.000000
			}
		}
	}
	JOINT FitGrandmaFacialAnim_Joint
	{
		OFFSET 1.150000 -86.211197 -1.220100
		CHANNELS 3 Xrotation Yrotation Zrotation
		End Site
		{
			OFFSET 0.000000 31.666618 0.000000
		}
	}
}
MOTION
Frames: 4
Frame Time: 0.016667
-15.468904 73.108116 -1.403548 -6.212752 -41.684146 1.942485 -0.000000 0.000000 0.000001 -22.203700 8.704928 24.535003 50.853026 -10.732760 9.525904 -22.341397 -10.092960 -27.583893 0.000000 0.000002 -0.000001 0.000000 -0.000002 0.000001 0.000002 -0.000000 0.000001 -27.850014 -9.463830 -36.080222 61.552183 -8.145519 -8.733059 -23.412290 -7.346905 26.229310 -0.000000 0.000000 0.000000 0.000001 0.000000 0.000001 0.000003 -0.000001 0.000000 9.602382 6.404986 -1.269549 2.766068 -0.356990 -2.318343 2.765116 -0.254304 -2.356227 2.319643 13.599714 3.258862 11.523871 19.676544 -2.051258 -0.000000 0.000000 -0.000001 -0.000000 0.000000 -0.000001 -0.000000 0.000000 -0.000001 -0.000000 0.000000 -0.000001 -0.000000 0.000000 -0.000001 -0.000000 0.000000 -0.000001 -0.000000 0.000000 -0.000001 -0.000000 0.000000 -0.000001 -0.000000 0.000000 -0.000001 -0.000000 0.000000 -0.000001 -0.000000 0.000000 -0.000001 -0.000000 0.000000 -0.000001 -0.000000 0.000000 -0.000001 -0.000000 0.000000 -0.000001 -0.000000 0.000000 -0.000001 -0.000000 0.000000 -0.000001 -0.000000 0.000000 -0.000001 -0.000000 0.000000 -0.000001 -0.000000 0.000000 -0.000001 2.217713 0.696459 -13.443604 -68.029736 -0.403267 -40.075715 0.000218 -108.716784 0.000214 0.135981 -4.421014 -12.826691 -6.141221 -11.690801 -6.761689 9.914128 42.595519 3.409853 -0.000000 -0.000000 -0.000001 0.255311 3.378198 -45.814337 5.654065 5.847730 -88.067435 -0.000002 -0.000001 0.000002 -0.461473 3.841584 -39.722683 6.450739 5.820341 -95.892864 -0.000001 0.000000 -0.000003 0.469721 4.966834 -39.799444 8.181087 5.368653 -113.502998 -0.000001 -0.000001 -0.000001 -3.762440 9.063702 -45.253818 5.342513 5.828984 -85.005311 -0.000000 -0.000002 0.000001 0.000001 -0.000001 0.000003 2.599454 11.718726 -12.158731 -64.262907 18.736191 84.603149 0.002258 87.058179 -0.002221 -17.320424 37.211919 21.718813 -7.341098 13.749659 7.412352 9.855732 -44.489100 -3.903302 0.000001 0.000002 0.000003 -0.124384 -2.384776 45.108864 4.500601 -4.654573 88.071150 -0.000000 -0.000001 0.000001 -0.761628 -2.932898 39.031061 5.133883 -4.632755 95.881656 0.000000 -0.000001 0.000002 0.154765 -4.068820 39.122675 6.509738 -4.273606 113.462884 0.000002 0.000001 -0.000002 -4.198873 -8.025535 44.637776 4.252898 -4.639608 85.014839 -0.000005 -0.000000 -0.000000 0.000001 -0.000003 0.000001 -0.000000 0.000000 -0.000000 -0.000000 0.000000 -0.000000 -0.000000 0.000000 -0.000000 -0.000000 0.000000 -0.000000 -0.000000 0.000000 -0.000000 -0.000001 0.000000 -0.000000 -0.000001 -0.000001 0.000000 -0.000001 -0.000001 0.000000 0.000000 0.000001 -0.000000 -0.000000 0.000000 0.000001 
-16.098049 73.470177 -1.688445 -6.550048 -41.852462 1.856246 -0.000001 -0.000001 -0.000000 -22.088436 8.396101 24.551875 50.583800 -11.137770 9.866593 -18.699086 -9.852322 -27.932089 0.000001 -0.000002 -0.000000 -0.000002 0.000001 -0.000001 0.000000 -0.000000 -0.000002 -27.445872 -10.038798 -35.952326 61.286604 -8.159328 -8.475218 -23.904844 -6.968667 25.616145 0.000000 -0.000001 -0.000000 -0.000001 0.000001 0.000003 -0.000000 0.000002 -0.000001 9.590974 6.258322 -1.179421 2.786419 -0.645112 -2.360984 2.784639 -0.532865 -2.409950 2.357361 13.650866 3.291965 11.963599 19.954418 -2.414291 -0.000001 0.000000 0.000001 -0.000001 0.000000 0.000001 -0.000001 0.000000 0.000001 -0.000001 0.000000 0.000001 -0.000001 0.000000 0.000001 -0.000001 0.000000 0.000001 -0.000001 0.000000 0.000001 -0.000001 0.000000 0.000001 -0.000001 0.000000 0.000001 -0.000001 0.000000 0.000001 -0.000001 0.000000 0.000001 -0.000001 0.000000 0.000001 -0.000001 0.000000 0.000001 -0.000001 0.000000 0.000001 -0.000001 0.000000 0.000001 -0.000001 0.000000 0.000001 -0.000001 0.000000 0.000001 -0.000001 0.000000 0.000001 -0.000001 0.000000 0.000001 2.119631 1.326084 -13.029245 -67.198816 -0.218702 -41.239186 0.000149 -108.751290 0.000173 0.302963 -4.918418 -12.653551 -6.141223 -11.690800 -6.761685 9.914125 42.595515 3.409855 -0.000000 0.000002 0.000000 0.255311 3.378200 -45.814341 5.654063 5.847731 -88.067435 0.000002 -0.000001 0.000000 -0.461470 3.841585 -39.722686 6.450741 5.820338 -95.892871 0.000001 0.000000 -0.000001 0.469725 4.966840 -39.799444 8.181089 5.368651 -113.503004 0.000001 0.000001 -0.000001 -3.762442 9.063701 -45.253814 5.342513 5.828988 -85.005311 0.000001 0.000001 -0.000001 -0.000001 -0.000001 0.000002 2.565277 11.280109 -12.138841 -64.922082 18.398006 84.997907 -0.004549 87.809049 0.004574 -17.630040 37.319727 21.737787 -7.341097 13.749659 7.412349 9.855731 -44.489100 -3.903289 0.000000 0.000003 -0.000000 -0.124387 -2.384776 45.108868 4.500600 -4.654571 88.071150 0.000000 -0.000001 0.000003 -0.761630 -2.932897 39.031058 5.133881 -4.632756 95.881656 -0.000000 -0.000000 0.000000 0.154761 -4.068817 39.122664 6.509738 -4.273606 113.462884 -0.000000 -0.000001 0.000001 -4.198875 -8.025535 44.637772 4.252898 -4.639609 85.014846 0.000000 -0.000002 -0.000001 -0.000001 -0.000000 -0.000000 0.000000 -0.000001 -0.000000 0.000000 -0.000001 -0.000000 0.000000 -0.000001 -0.000000 0.000000 -0.000001 -0.000000 0.000000 -0.000001 -0.000000 0.000000 -0.000001 0.000000 0.000000 -0.000002 0.000000 0.000000 -0.000002 0.000000 -0.000000 0.000001 -0.000001 -0.000001 -0.000001 -0.000000 
-16.727127 73.885315 -1.951673 -6.722667 -42.018204 1.877201 0.000001 -0.000001 -0.000001 -22.212762 8.028936 24.387554 50.781633 -11.282432 10.013424 -15.511950 -9.467270 -27.116078 0.000001 -0.000002 0.000000 0.000000 0.000003 -0.000000 -0.000003 0.000001 -0.000001 -27.009712 -10.601284 -35.697150 60.811285 -8.189860 -8.260807 -24.275032 -6.700310 25.014420 0.000000 0.000001 -0.000000 -0.000001 -0.000000 0.000003 0.000003 -0.000001 0.000001 9.570966 6.134283 -1.138830 2.771246 -0.888554 -2.411325 2.769534 -0.770333 -2.469699 2.323233 13.688409 3.351656 12.263288 20.206071 -2.684241 -0.000001 0.000000 -0.000001 -0.000001 0.000000 -0.000001 -0.000001 0.000000 -0.000001 -0.000001 0.000000 -0.000001 -0.000001 0.000000 -0.000001 -0.000001 0.000000 -0.000001 -0.000001 0.000000 -0.000001 -0.000001 0.000000 -0.000001 -0.000001 0.000000 -0.000001 -0.000001 0.000000 -0.000001 -0.000001 0.000000 -0.000001 -0.000001 0.000000 -0.000001 -0.000001 0.000000 -0.000001 -0.000001 0.000000 -0.000001 -0.000001 0.000000 -0.000001 -0.000001 0.000000 -0.000001 -0.000001 0.000000 -0.000001 -0.000001 0.000000 -0.000001 -0.000001 0.000000 -0.000001 2.040251 1.891031 -12.727013 -66.041878 -0.227470 -42.512702 -0.000064 -108.614665 -0.000055 0.616235 -5.150690 -12.859869 -6.141223 -11.690799 -6.761685 9.914129 42.595519 3.409850 -0.000003 0.000001 -0.000003 0.255310 3.378201 -45.814337 5.654065 5.847729 -88.067435 0.000000 0.000001 -0.000001 -0.461472 3.841584 -39.722679 6.450738 5.820344 -95.892864 -0.000001 0.000000 -0.000001 0.469724 4.966839 -39.799437 8.181090 5.368649 -113.502998 -0.000000 0.000000 0.000000 -3.762440 9.063704 -45.253814 5.342516 5.828986 -85.005311 -0.000002 0.000000 -0.000001 -0.000001 0.000001 -0.000003 2.522556 10.738727 -12.141175 -65.351264 18.105114 85.470023 0.005448 88.672671 -0.005575 -17.925691 37.372084 21.709934 -7.341098 13.749659 7.412354 9.855728 -44.489096 -3.903298 -0.000001 0.000002 0.000001 -0.124385 -2.384776 45.108868 4.500601 -4.654572 88.071150 -0.000001 -0.000000 0.000001 -0.761627 -2.932898 39.031068 5.133885 -4.632756 95.881656 -0.000001 0.000000 -0.000001 0.154765 -4.068821 39.122675 6.509739 -4.273604 113.462891 -0.000001 -0.000001 -0.000001 -4.198871 -8.025538 44.637776 4.252896 -4.639609 85.014846 0.000001 -0.000000 0.000002 0.000003 -0.000001 0.000001 -0.000000 -0.000000 0.000000 -0.000000 -0.000000 0.000000 -0.000000 -0.000000 0.000000 -0.000000 -0.000000 0.000000 -0.000000 -0.000000 0.000000 -0.000000 -0.000000 0.000000 -0.000001 0.000001 -0.000000 -0.000001 0.000001 -0.000000 -0.000000 -0.000001 0.000000 0.000001 -0.000001 -0.000001 
-17.342861 74.332352 -2.181849 -6.745276 -42.197571 1.987519 0.000001 -0.000000 -0.000000 -22.596550 7.571277 24.152355 51.447102 -11.116993 10.010692 -12.898474 -9.135521 -25.602565 0.000000 -0.000000 0.000001 0.000003 -0.000001 0.000004 -0.000002 0.000003 -0.000003 -26.550013 -11.119718 -35.317419 60.164691 -8.235507 -8.098800 -24.530303 -6.540642 24.439074 -0.000000 0.000002 -0.000000 -0.000002 -0.000001 -0.000001 0.000002 0.000001 -0.000001 9.541134 6.042082 -1.138532 2.720344 -1.070421 -2.460025 2.719146 -0.949800 -2.525624 2.229912 13.710760 3.433358 12.372788 20.430363 -2.883341 0.000001 -0.000000 0.000000 0.000001 -0.000000 0.000000 0.000001 -0.000000 0.000000 0.000001 -0.000000 0.000000 0.000001 -0.000000 0.000000 0.000001 -0.000000 0.000000 0.000001 -0.000000 0.000000 0.000001 -0.000000 0.000000 0.000001 -0.000000 0.000000 0.000001 -0.000000 0.000000 0.000001 -0.000000 0.000000 0.000001 -0.000000 0.000000 0.000001 -0.000000 0.000000 0.000001 -0.000000 0.000000 0.000001 -0.000000 0.000000 0.000001 -0.000000 0.000000 0.000001 -0.000000 0.000000 0.000001 -0.000000 0.000000 0.000001 -0.000000 0.000000 1.997482 2.324983 -12.601862 -64.622510 -0.436646 -43.747734 -0.000008 -108.319389 0.000020 1.063098 -5.154258 -13.436475 -6.141223 -11.690801 -6.761690 9.914129 42.595519 3.409849 -0.000000 -0.000000 0.000000 0.255309 3.378197 -45.814337 5.654066 5.847727 -88.067441 0.000001 -0.000001 0.000000 -0.461472 3.841580 -39.722690 6.450739 5.820341 -95.892871 -0.000002 -0.000002 0.000002 0.469722 4.966831 -39.799444 8.181088 5.368649 -113.503004 -0.000002 -0.000001 -0.000002 -3.762441 9.063700 -45.253818 5.342514 5.828984 -85.005317 -0.000002 -0.000000 -0.000000 -0.000001 0.000001 0.000001 2.474451 10.139570 -12.169915 -65.449311 17.878901 85.928356 -0.005304 89.657373 0.005582 -18.193442 37.393445 21.742343 -7.341098 13.749658 7.412349 9.855727 -44.489096 -3.903291 0.000001 0.000003 -0.000001 -0.124386 -2.384773 45.108861 4.500601 -4.654570 88.071150 -0.000001 -0.000001 0.000003 -0.761629 -2.932900 39.031061 5.133884 -4.632755 95.881656 0.000000 0.000000 0.000002 0.154763 -4.068818 39.122675 6.509737 -4.273604 113.462884 0.000002 -0.000002 -0.000001 -4.198875 -8.025534 44.637772 4.252900 -4.639611 85.014846 -0.000002 -0.000000 0.000002 -0.000000 -0.000002 -0.000000 -0.000000 -0.000004 0.000001 -0.000000 -0.000004 0.000001 -0.000000 -0.000004 0.000001 -0.000000 -0.000004 0.000001 -0.000000 -0.000004 0.000001 -0.000000 -0.000004 0.000000 -0.000000 0.000003 -0.000000 -0.000000 0.000003 -0.000000 -0.000000 -0.000004 0.000000 0.000001 -0.000000 -0.000000 
